<svg xmlns="http://www.w3.org/2000/svg" xmlns:xlink="http://www.w3.org/1999/xlink" width="510" zoomAndPan="magnify" viewBox="0 0 382.5 74.999997" height="100" preserveAspectRatio="xMidYMid meet" version="1.0"><defs><clipPath id="b308427af3"><path d="M 42 21 L 379.980469 21 L 379.980469 54 L 42 54 Z M 42 21 " clip-rule="nonzero"/></clipPath><clipPath id="aeea386329"><path d="M 7.300781 22.378906 L 37.640625 22.378906 L 37.640625 52.71875 L 7.300781 52.71875 Z M 7.300781 22.378906 " clip-rule="nonzero"/></clipPath><clipPath id="53d9604ca1"><path d="M 9 28 L 36 28 L 36 52.378906 L 9 52.378906 Z M 9 28 " clip-rule="nonzero"/></clipPath></defs><g clip-path="url(#b308427af3)"><path fill="#ffffff" d="M 81.324219 25.347656 C 79.71875 23.273438 76.730469 22.191406 72.378906 22.191406 L 52.675781 22.191406 L 52.246094 23.488281 L 43.179688 50.65625 L 42.34375 53.132812 L 55.542969 53.132812 L 55.976562 51.925781 L 59.121094 42.613281 L 69.667969 42.613281 C 76.082031 42.613281 80.523438 39.023438 82.1875 32.617188 C 82.957031 29.617188 82.679688 27.109375 81.324219 25.347656 Z M 63.066406 30.546875 L 69.234375 30.546875 C 70.191406 30.546875 70.625 30.761719 70.746094 30.855469 C 70.746094 30.917969 70.746094 30.976562 70.683594 31.132812 C 70.285156 32.402344 70.007812 32.710938 66.675781 32.710938 L 62.328125 32.710938 Z M 268.503906 32.617188 C 269.273438 29.617188 268.996094 27.140625 267.640625 25.347656 C 266.035156 23.273438 263.046875 22.160156 258.699219 22.160156 L 238.992188 22.160156 L 238.5625 23.460938 L 229.464844 50.65625 L 228.632812 53.101562 L 241.859375 53.101562 L 242.292969 51.894531 L 245.40625 42.613281 L 255.953125 42.613281 C 262.367188 42.613281 266.808594 39.023438 268.503906 32.617188 Z M 249.382812 30.546875 L 255.550781 30.546875 C 256.507812 30.546875 256.941406 30.761719 257.0625 30.855469 C 257.0625 30.917969 257.0625 30.976562 257 31.132812 C 256.601562 32.402344 256.324219 32.710938 252.992188 32.710938 L 248.644531 32.710938 Z M 228.414062 39.550781 C 228.015625 38.929688 227.519531 38.40625 226.996094 37.972656 C 228.941406 37.105469 230.820312 35.527344 231.589844 32.554688 C 232.363281 29.554688 232.085938 27.109375 230.726562 25.316406 C 229.15625 23.273438 226.132812 22.191406 221.816406 22.191406 L 202.140625 22.191406 L 201.710938 23.488281 L 192.613281 50.6875 L 191.78125 53.132812 L 204.980469 53.132812 L 205.410156 51.925781 L 208.554688 42.613281 L 215.835938 42.613281 L 215.863281 42.550781 C 215.863281 42.550781 215.894531 42.519531 215.925781 42.519531 C 216.605469 42.519531 217.160156 42.613281 217.375 42.738281 C 217.375 42.796875 217.375 42.828125 217.34375 42.890625 L 217.3125 42.921875 L 217.3125 42.953125 L 214.691406 50.6875 L 213.859375 53.132812 L 226.347656 53.132812 L 226.78125 51.894531 C 227.027344 51.152344 228.816406 45.921875 229 45.335938 C 229.835938 42.582031 229.15625 40.664062 228.414062 39.550781 Z M 212.503906 30.546875 L 218.671875 30.546875 C 219.597656 30.546875 220.058594 30.792969 220.183594 30.886719 C 220.183594 30.945312 220.183594 31.164062 220.121094 31.320312 C 219.71875 32.585938 219.441406 33.050781 216.113281 33.050781 L 211.761719 33.050781 Z M 109.632812 21.882812 L 99.394531 21.882812 C 90.757812 21.882812 84.929688 26.769531 81.601562 36.828125 C 79.535156 43.046875 79.503906 47.285156 81.507812 50.070312 C 83.144531 52.328125 85.886719 53.441406 89.957031 53.441406 L 100.226562 53.441406 C 104.574219 53.441406 108.304688 52.082031 111.296875 49.449219 C 114.226562 46.882812 116.476562 43.078125 118.234375 37.816406 C 120.148438 32.0625 120.148438 27.914062 118.234375 25.222656 C 116.539062 22.996094 113.765625 21.882812 109.632812 21.882812 Z M 105.34375 36.855469 C 103.867188 41.28125 101.769531 43.851562 99.578125 43.851562 L 94.800781 43.851562 C 94.089844 43.851562 93.9375 43.601562 93.875 43.511719 C 93.441406 42.921875 93.351562 41.035156 94.429688 37.816406 C 96.308594 32.0625 98.777344 31.164062 100.042969 31.164062 L 104.820312 31.164062 C 105.621094 31.164062 105.808594 31.472656 105.871094 31.566406 C 106.300781 32.121094 106.363281 33.855469 105.34375 36.855469 Z M 189.777344 43.851562 L 173.894531 43.851562 L 174.359375 42.304688 L 187.308594 42.304688 L 187.742188 41.035156 L 189.46875 35.804688 L 190.300781 33.328125 L 177.351562 33.328125 L 177.964844 31.472656 L 196.4375 31.472656 L 196.871094 30.265625 L 198.75 24.636719 L 199.582031 22.191406 L 167.851562 22.191406 L 167.421875 23.488281 L 158.355469 50.6875 L 157.550781 53.132812 L 189.222656 53.132812 L 189.652344 51.863281 L 191.566406 46.234375 L 192.367188 43.851562 Z M 296.78125 43.851562 L 278.988281 43.851562 L 285.339844 24.726562 L 286.171875 22.191406 L 272.945312 22.191406 L 272.511719 23.488281 L 263.445312 50.6875 L 262.644531 53.132812 L 293.667969 53.132812 L 294.097656 51.863281 L 296.011719 46.203125 Z M 376.15625 22.191406 L 364.53125 22.191406 L 363.972656 22.933594 L 359.566406 28.78125 L 358.238281 23.582031 L 357.867188 22.191406 L 344.671875 22.191406 L 345.289062 24.542969 L 349.882812 41.683594 L 343.683594 50.195312 L 342.082031 52.390625 L 341.710938 50.875 L 335.171875 23.644531 L 334.832031 22.191406 L 317.933594 22.191406 L 317.378906 22.933594 L 296.875 50.132812 L 294.621094 53.101562 L 310.195312 53.101562 L 310.75 52.359375 L 313.988281 48.152344 L 328.234375 48.152344 L 329.066406 51.679688 L 329.40625 53.101562 L 356.726562 53.101562 L 357.28125 52.359375 L 377.605469 25.160156 L 379.824219 22.160156 L 376.15625 22.160156 Z M 326.046875 39.207031 L 320.710938 39.207031 L 324.75 33.792969 Z M 165.105469 22.191406 L 152.308594 22.191406 L 151.878906 23.429688 L 148.917969 31.628906 L 149.503906 24.203125 L 149.65625 22.191406 L 137.507812 22.191406 L 137.046875 23.367188 L 132.050781 35.402344 L 132.296875 24.109375 L 132.328125 22.191406 L 120.269531 22.191406 L 120.332031 24.109375 L 121.164062 51.308594 L 121.226562 53.132812 L 136.089844 53.132812 L 136.523438 51.832031 L 138.1875 46.757812 L 138.15625 51.246094 L 138.15625 53.132812 L 153.851562 53.132812 L 154.285156 51.894531 L 164.214844 24.695312 Z M 165.105469 22.191406 " fill-opacity="1" fill-rule="nonzero"/></g><path fill="#1a171b" d="M 79.84375 26.492188 C 78.609375 24.914062 76.113281 24.109375 72.378906 24.109375 L 54.03125 24.109375 L 44.90625 51.277344 L 54.21875 51.277344 L 57.765625 40.632812 L 69.636719 40.632812 C 76.667969 40.632812 79.351562 35.992188 80.367188 32.09375 C 81.015625 29.648438 80.832031 27.789062 79.84375 26.492188 Z M 72.472656 31.8125 C 71.640625 34.445312 69.976562 34.722656 66.707031 34.722656 L 59.769531 34.722656 L 61.742188 28.78125 L 69.234375 28.78125 C 70.714844 28.78125 71.765625 29.152344 72.257812 29.832031 C 72.660156 30.328125 72.71875 31.007812 72.472656 31.8125 Z M 266.160156 26.492188 C 264.925781 24.914062 262.429688 24.078125 258.699219 24.078125 L 240.320312 24.078125 L 231.253906 51.277344 L 240.566406 51.277344 L 244.113281 40.601562 L 255.984375 40.601562 C 263.015625 40.601562 265.699219 35.960938 266.714844 32.0625 C 267.332031 29.679688 267.148438 27.789062 266.160156 26.492188 Z M 258.757812 31.8125 C 257.925781 34.445312 256.261719 34.722656 252.960938 34.722656 L 246.054688 34.722656 L 248.027344 28.78125 L 255.519531 28.78125 C 257 28.78125 258.050781 29.152344 258.542969 29.832031 C 258.945312 30.359375 259.003906 31.007812 258.757812 31.8125 Z M 333.382812 24.078125 L 318.859375 24.078125 L 298.355469 51.277344 L 309.269531 51.277344 L 313.0625 46.355469 L 329.683594 46.355469 L 330.855469 51.277344 L 339.921875 51.277344 C 339.921875 51.277344 333.382812 24.078125 333.382812 24.078125 Z M 317.011719 40.941406 L 325.644531 29.398438 L 328.390625 40.941406 Z M 229.277344 26.523438 C 228.046875 24.945312 225.546875 24.140625 221.816406 24.140625 L 203.46875 24.140625 L 194.371094 51.277344 L 203.683594 51.277344 L 207.230469 40.601562 L 215.835938 40.601562 C 215.835938 40.601562 215.863281 40.601562 215.957031 40.601562 C 216.480469 40.601562 217.808594 40.664062 218.578125 41.21875 C 219.472656 41.839844 219.320312 42.984375 219.101562 43.511719 L 216.480469 51.246094 L 225.085938 51.246094 C 225.457031 50.164062 227.121094 45.273438 227.273438 44.746094 C 227.769531 43.078125 227.644531 41.652344 226.90625 40.507812 C 225.457031 38.21875 222.03125 37.691406 222 37.691406 L 219.65625 37.351562 L 222.03125 37.167969 C 225.117188 36.917969 228.816406 36.113281 229.863281 32.03125 C 230.449219 29.679688 230.265625 27.789062 229.277344 26.523438 Z M 221.878906 31.8125 C 221.046875 34.445312 219.410156 34.722656 216.113281 34.722656 L 209.203125 34.722656 L 211.175781 28.78125 L 218.671875 28.78125 C 220.152344 28.78125 221.199219 29.152344 221.691406 29.832031 C 222.0625 30.359375 222.125 31.007812 221.878906 31.8125 Z M 116.664062 26.335938 C 115.398438 24.574219 113.117188 23.738281 109.632812 23.738281 L 99.394531 23.738281 C 91.5625 23.738281 86.472656 28.070312 83.359375 37.414062 C 81.507812 42.953125 81.414062 46.695312 82.988281 48.925781 C 84.222656 50.65625 86.503906 51.492188 89.957031 51.492188 L 100.226562 51.492188 C 108.058594 51.492188 113.207031 46.945312 116.476562 37.199219 C 118.144531 32.09375 118.234375 28.503906 116.664062 26.335938 Z M 107.101562 37.414062 C 105.34375 42.738281 102.664062 45.644531 99.578125 45.644531 L 94.800781 45.644531 C 93.71875 45.644531 92.886719 45.273438 92.363281 44.53125 C 91.160156 42.828125 91.839844 39.609375 92.640625 37.199219 C 94.335938 32.0625 96.894531 29.339844 100.042969 29.339844 L 104.820312 29.339844 C 105.992188 29.339844 106.824219 29.710938 107.378906 30.453125 C 108.304688 31.78125 108.214844 34.101562 107.101562 37.414062 Z M 160.113281 51.277344 L 187.894531 51.277344 L 189.808594 45.550781 L 171.335938 45.550781 L 173.0625 40.414062 L 186.015625 40.414062 L 187.742188 35.21875 L 174.789062 35.21875 L 176.640625 29.710938 L 195.113281 29.710938 L 196.992188 24.078125 L 169.207031 24.078125 Z M 265.234375 51.277344 L 292.339844 51.277344 L 294.253906 45.550781 L 276.460938 45.550781 L 283.644531 24.078125 L 274.332031 24.078125 Z M 345.164062 51.277344 L 355.832031 51.277344 L 376.15625 24.078125 L 365.453125 24.078125 L 358.730469 32.988281 L 356.417969 24.078125 L 347.074219 24.078125 L 351.886719 42.054688 Z M 139.976562 51.246094 L 152.496094 51.246094 L 162.425781 24.078125 L 153.574219 24.078125 L 145.957031 45.242188 L 147.621094 24.078125 L 138.710938 24.078125 L 129.953125 45.273438 L 130.445312 24.078125 L 122.183594 24.078125 L 123.015625 51.246094 L 134.765625 51.246094 L 140.128906 34.847656 Z M 139.976562 51.246094 " fill-opacity="1" fill-rule="nonzero"/><g clip-path="url(#aeea386329)"><path fill="#ff0101" d="M 7.300781 22.378906 L 37.640625 22.378906 L 37.640625 52.71875 L 7.300781 52.71875 Z M 7.300781 22.378906 " fill-opacity="1" fill-rule="nonzero"/></g><g clip-path="url(#53d9604ca1)"><path fill="#ffffff" d="M 23.769531 45.933594 C 25.957031 45.933594 27.722656 44.167969 27.722656 41.980469 C 27.722656 39.792969 25.957031 38.023438 23.769531 38.023438 C 21.582031 38.023438 19.8125 39.792969 19.8125 41.980469 C 19.78125 44.195312 21.582031 45.933594 23.769531 45.933594 Z M 34.765625 39.460938 C 27.15625 56.753906 8.484375 46.5625 16.09375 29.390625 C 16.367188 28.792969 16.304688 28.703125 15.644531 29.210938 C 10.222656 33.347656 7.222656 44.855469 12.617188 52.378906 L 30.390625 52.378906 C 32.9375 49.589844 34.796875 45.394531 35.066406 39.550781 C 35.097656 39.160156 34.917969 39.160156 34.765625 39.460938 Z M 34.765625 39.460938 " fill-opacity="1" fill-rule="nonzero"/></g></svg>