<svg xmlns="http://www.w3.org/2000/svg" xmlns:xlink="http://www.w3.org/1999/xlink" width="510" zoomAndPan="magnify" viewBox="0 0 382.5 74.999997" height="100" preserveAspectRatio="xMidYMid meet" version="1.0"><defs><clipPath id="fcc33114fc"><path d="M 42.246094 22 L 260.496094 22 L 260.496094 53 L 42.246094 53 Z M 42.246094 22 " clip-rule="nonzero"/></clipPath><clipPath id="7d492f8231"><path d="M 7.300781 22.542969 L 37.4375 22.542969 L 37.4375 52.679688 L 7.300781 52.679688 Z M 7.300781 22.542969 " clip-rule="nonzero"/></clipPath><clipPath id="c796e25732"><path d="M 9 29 L 36 29 L 36 52.542969 L 9 52.542969 Z M 9 29 " clip-rule="nonzero"/></clipPath></defs><g clip-path="url(#fcc33114fc)"><path fill="#ffffff" d="M 247.644531 22.496094 L 243.527344 34.800781 L 241.125 22.496094 L 196.324219 22.496094 L 190.347656 40.324219 C 190.199219 39.871094 189.988281 39.421875 189.746094 39.03125 C 189.355469 38.402344 188.847656 37.890625 188.304688 37.472656 C 190.199219 36.660156 192.03125 35.160156 192.78125 32.308594 C 193.53125 29.460938 193.261719 27.148438 191.96875 25.46875 C 190.46875 23.515625 187.585938 22.496094 183.472656 22.496094 L 147.828125 22.496094 L 136.175781 37.203125 L 132.632812 22.496094 L 119.121094 22.496094 L 116.445312 30.480469 C 116.445312 28.46875 115.964844 26.816406 115.035156 25.496094 C 113.445312 23.308594 110.742188 22.195312 106.71875 22.195312 L 96.65625 22.195312 C 89.691406 22.195312 84.585938 25.496094 81.164062 32.191406 C 81.882812 29.367188 81.613281 27.117188 80.320312 25.4375 C 78.820312 23.488281 75.9375 22.496094 71.824219 22.496094 L 52.90625 22.496094 L 42.847656 52.507812 L 63.804688 52.507812 C 70.804688 52.507812 75.699219 50.375 77.859375 46.414062 C 78.070312 47.675781 78.492188 48.695312 79.152344 49.59375 C 80.710938 51.785156 83.414062 52.804688 87.378906 52.804688 L 97.4375 52.804688 C 103.414062 52.804688 108.039062 50.34375 111.460938 45.242188 L 109.03125 52.507812 L 121.820312 52.507812 L 126.027344 39.992188 L 129.058594 52.507812 L 137.40625 52.507812 L 144.882812 42.875 L 141.492188 52.507812 L 175.421875 52.507812 C 180.738281 52.507812 184.824219 51.246094 187.433594 48.933594 L 186.234375 52.507812 L 229.503906 52.507812 L 233.710938 39.992188 L 236.710938 52.507812 L 250.347656 52.507812 L 260.433594 22.496094 Z M 92.152344 43.804688 C 91.433594 43.804688 91.253906 43.503906 91.164062 43.382812 C 90.710938 42.753906 90.621094 40.921875 91.671875 37.742188 C 93.476562 32.371094 95.695312 31.199219 97.289062 31.199219 L 102.003906 31.199219 C 102.84375 31.199219 103.023438 31.5 103.113281 31.589844 C 103.324219 31.859375 103.863281 33.121094 102.605469 36.839844 C 101.132812 41.222656 99.058594 43.773438 96.867188 43.773438 L 92.152344 43.773438 Z M 66.058594 41.703125 C 67.109375 41.703125 67.53125 41.882812 67.621094 41.941406 C 67.621094 42.03125 67.589844 42.214844 67.46875 42.484375 C 66.898438 43.804688 66.179688 44.105469 63.535156 44.105469 L 58.222656 44.105469 L 59.03125 41.703125 Z M 70.261719 31.078125 C 69.84375 32.371094 69.453125 32.699219 66.359375 32.699219 L 62.066406 32.699219 L 62.816406 30.300781 L 68.792969 30.300781 C 69.8125 30.300781 70.261719 30.597656 70.324219 30.660156 C 70.324219 30.660156 70.351562 30.839844 70.261719 31.078125 Z M 78.429688 39.632812 C 78.339844 39.421875 78.21875 39.242188 78.101562 39.03125 C 77.710938 38.402344 77.199219 37.890625 76.660156 37.472656 C 77.890625 36.929688 79.089844 36.121094 79.992188 34.832031 C 79.722656 35.492188 79.480469 36.152344 79.269531 36.839844 C 78.941406 37.742188 78.671875 38.671875 78.429688 39.632812 Z M 170.648438 41.703125 L 177.675781 41.703125 C 178.757812 41.703125 179.148438 41.882812 179.238281 41.941406 C 179.238281 42.03125 179.207031 42.214844 179.085938 42.484375 C 178.515625 43.804688 177.796875 44.105469 175.152344 44.105469 L 169.839844 44.105469 Z M 181.878906 31.078125 C 181.460938 32.371094 181.070312 32.699219 177.945312 32.699219 L 173.683594 32.699219 L 174.433594 30.300781 L 180.410156 30.300781 C 181.429688 30.300781 181.878906 30.597656 181.941406 30.660156 C 181.941406 30.660156 181.96875 30.839844 181.878906 31.078125 Z M 202.089844 43.503906 L 202.601562 42.003906 L 215.300781 42.003906 L 218.183594 33.300781 L 205.484375 33.300781 L 206.113281 31.5 L 223.769531 31.5 L 219.746094 43.503906 Z M 202.089844 43.503906 " fill-opacity="1" fill-rule="nonzero"/></g><path fill="#000000" d="M 188.757812 50.734375 L 215.871094 50.734375 L 217.703125 45.273438 L 199.597656 45.273438 L 201.339844 40.113281 L 214.011719 40.113281 L 215.664062 35.160156 L 202.960938 35.160156 L 204.820312 29.640625 L 222.960938 29.640625 L 224.761719 24.265625 L 197.613281 24.265625 Z M 45.339844 50.734375 L 63.804688 50.734375 C 67.980469 50.734375 75.21875 49.867188 76.929688 43.984375 C 77.378906 42.421875 77.257812 41.074219 76.570312 39.992188 C 75.1875 37.832031 71.945312 37.351562 71.914062 37.351562 L 68.851562 36.902344 L 71.972656 36.660156 C 74.917969 36.421875 78.398438 35.671875 79.421875 31.828125 C 80.023438 29.550781 79.839844 27.777344 78.910156 26.546875 C 77.769531 25.046875 75.367188 24.296875 71.824219 24.296875 L 54.195312 24.296875 Z M 63.535156 45.933594 L 55.726562 45.933594 L 57.742188 39.933594 L 66.058594 39.933594 C 67.679688 39.933594 68.699219 40.261719 69.152344 40.984375 C 69.511719 41.554688 69.511719 42.304688 69.121094 43.234375 C 68.070312 45.722656 66.058594 45.933594 63.535156 45.933594 Z M 66.328125 34.46875 L 59.570312 34.46875 L 61.523438 28.617188 L 68.792969 28.617188 C 70.234375 28.617188 71.285156 28.980469 71.765625 29.667969 C 72.15625 30.179688 72.214844 30.839844 71.945312 31.648438 C 71.132812 34.261719 69.273438 34.46875 66.328125 34.46875 Z M 156.957031 50.734375 L 175.421875 50.734375 C 179.597656 50.734375 186.835938 49.867188 188.546875 43.984375 C 188.996094 42.421875 188.875 41.074219 188.1875 39.992188 C 186.804688 37.832031 183.5625 37.351562 183.53125 37.351562 L 180.46875 36.902344 L 183.589844 36.660156 C 186.535156 36.421875 190.019531 35.671875 191.039062 31.828125 C 191.640625 29.550781 191.460938 27.777344 190.527344 26.546875 C 189.386719 25.046875 186.984375 24.296875 183.441406 24.296875 L 165.8125 24.296875 Z M 175.152344 45.933594 L 167.347656 45.933594 L 169.359375 39.933594 L 177.675781 39.933594 C 179.296875 39.933594 180.320312 40.261719 180.769531 40.984375 C 181.128906 41.554688 181.128906 42.304688 180.738281 43.234375 C 179.6875 45.722656 177.675781 45.933594 175.152344 45.933594 Z M 177.945312 34.46875 L 171.191406 34.46875 L 173.140625 28.617188 L 180.410156 28.617188 C 181.851562 28.617188 182.902344 28.980469 183.382812 29.667969 C 183.773438 30.179688 183.832031 30.839844 183.5625 31.648438 C 182.75 34.261719 180.890625 34.46875 177.945312 34.46875 Z M 96.65625 24.085938 C 89 24.085938 84.015625 28.320312 80.984375 37.410156 C 79.179688 42.785156 79.0625 46.445312 80.621094 48.605469 C 81.824219 50.285156 84.046875 51.097656 87.410156 51.097656 L 97.46875 51.097656 C 105.125 51.097656 110.171875 46.683594 113.355469 37.171875 C 115.035156 32.160156 115.125 28.679688 113.59375 26.578125 C 112.363281 24.898438 110.140625 24.058594 106.746094 24.058594 Z M 96.867188 45.515625 L 92.183594 45.515625 C 91.101562 45.515625 90.261719 45.152344 89.75 44.402344 C 88.550781 42.722656 89.242188 39.542969 90.023438 37.203125 C 91.703125 32.160156 94.226562 29.488281 97.320312 29.488281 L 102.003906 29.488281 C 103.175781 29.488281 104.015625 29.878906 104.554688 30.597656 C 105.457031 31.859375 105.394531 34.171875 104.285156 37.410156 C 102.542969 42.632812 99.929688 45.515625 96.867188 45.515625 Z M 144.042969 50.734375 L 153.324219 50.734375 L 162.210938 24.296875 L 148.667969 24.296875 L 135.605469 40.773438 L 135.125 40.773438 L 131.222656 24.296875 L 120.410156 24.296875 L 111.550781 50.734375 L 120.53125 50.734375 L 125.964844 34.5 L 126.535156 34.5 L 130.46875 50.734375 L 136.535156 50.734375 L 150.289062 33.03125 Z M 219.207031 50.734375 L 228.183594 50.734375 L 233.648438 34.5 L 234.21875 34.5 L 238.125 50.734375 L 249.054688 50.734375 L 257.914062 24.296875 L 248.933594 24.296875 L 243.410156 40.742188 L 242.839844 40.742188 L 239.59375 24.296875 L 228.0625 24.296875 Z M 219.207031 50.734375 " fill-opacity="1" fill-rule="nonzero"/><g clip-path="url(#7d492f8231)"><path fill="#ff0101" d="M 7.300781 22.542969 L 37.4375 22.542969 L 37.4375 52.679688 L 7.300781 52.679688 Z M 7.300781 22.542969 " fill-opacity="1" fill-rule="nonzero"/></g><g clip-path="url(#c796e25732)"><path fill="#ffffff" d="M 23.765625 46.101562 C 25.953125 46.101562 27.722656 44.332031 27.722656 42.144531 C 27.722656 39.957031 25.953125 38.1875 23.765625 38.1875 C 21.578125 38.1875 19.8125 39.957031 19.8125 42.144531 C 19.78125 44.363281 21.578125 46.101562 23.765625 46.101562 Z M 34.765625 39.625 C 27.152344 56.917969 8.484375 46.730469 16.09375 29.558594 C 16.363281 28.957031 16.304688 28.867188 15.644531 29.378906 C 10.222656 33.511719 7.222656 45.023438 12.617188 52.542969 L 30.390625 52.542969 C 32.9375 49.757812 34.796875 45.5625 35.066406 39.71875 C 35.097656 39.328125 34.914062 39.328125 34.765625 39.625 Z M 34.765625 39.625 " fill-opacity="1" fill-rule="nonzero"/></g></svg>