<svg xmlns="http://www.w3.org/2000/svg" xmlns:xlink="http://www.w3.org/1999/xlink" width="510" zoomAndPan="magnify" viewBox="0 0 382.5 74.999997" height="100" preserveAspectRatio="xMidYMid meet" version="1.0"><defs><clipPath id="a003257a4b"><path d="M 306 23 L 347.398438 23 L 347.398438 53 L 306 53 Z M 306 23 " clip-rule="nonzero"/></clipPath><clipPath id="54f7a3dc20"><path d="M 42.148438 22 L 248 22 L 248 53 L 42.148438 53 Z M 42.148438 22 " clip-rule="nonzero"/></clipPath><clipPath id="7657332086"><path d="M 7.300781 23 L 37.355469 23 L 37.355469 53.054688 L 7.300781 53.054688 Z M 7.300781 23 " clip-rule="nonzero"/></clipPath></defs><g clip-path="url(#a003257a4b)"><path fill="#ffffff" d="M 344.933594 23.027344 L 316.894531 23.027344 L 316.476562 24.238281 L 307.714844 50.210938 L 306.941406 52.546875 L 337.476562 52.546875 L 337.863281 51.335938 L 339.675781 45.988281 L 340.449219 43.652344 L 322.566406 43.652344 L 323.070312 42.117188 L 335.636719 42.117188 L 336.050781 40.90625 L 337.6875 36.03125 L 338.457031 33.695312 L 325.921875 33.695312 L 326.578125 31.832031 L 344.488281 31.832031 L 344.875 30.621094 L 346.628906 25.363281 L 347.398438 23.027344 Z M 344.933594 23.027344 " fill-opacity="1" fill-rule="nonzero"/></g><path fill="#ffffff" d="M 311.664062 37.921875 L 311.8125 37.390625 L 312.527344 35.085938 L 292.980469 35.085938 L 292.5625 36.296875 L 290.929688 41.257812 L 290.15625 43.59375 L 294.792969 43.59375 C 294.40625 43.742188 294.078125 43.769531 293.78125 43.769531 L 289.148438 43.769531 C 288.464844 43.769531 288.285156 43.5625 288.167969 43.417969 C 287.722656 42.765625 287.691406 40.847656 288.671875 37.980469 C 289.652344 35.085938 291.40625 31.625 294.199219 31.625 L 298.832031 31.625 C 299.722656 31.625 300.019531 31.894531 300.140625 32.75 L 300.347656 34.285156 L 312.761719 34.285156 L 312.941406 32.71875 C 313.328125 29.617188 312.761719 27.195312 311.308594 25.539062 C 309.703125 23.679688 307.058594 22.703125 303.464844 22.703125 L 293.542969 22.703125 C 289.296875 22.703125 285.820312 23.886719 282.96875 26.308594 C 280.175781 28.671875 278.039062 32.160156 276.40625 36.945312 C 274.445312 42.738281 274.382812 46.875 276.285156 49.53125 C 277.832031 51.691406 280.503906 52.722656 284.394531 52.722656 L 294.316406 52.722656 C 298.503906 52.722656 302.097656 51.453125 304.953125 48.941406 C 307.773438 46.546875 309.941406 42.945312 311.664062 37.921875 Z M 311.664062 37.921875 " fill-opacity="1" fill-rule="nonzero"/><path fill="#ffffff" d="M 280.917969 23.027344 L 268.296875 23.027344 L 267.878906 24.238281 L 264.195312 35.144531 L 262.085938 24.445312 L 261.820312 23.027344 L 247.710938 23.027344 L 247.292969 24.238281 L 238.53125 50.210938 L 237.757812 52.546875 L 250.382812 52.546875 L 250.796875 51.335938 L 254.511719 40.226562 L 257.15625 51.1875 L 257.511719 52.546875 L 270.96875 52.546875 L 271.382812 51.335938 L 280.117188 25.363281 Z M 280.917969 23.027344 " fill-opacity="1" fill-rule="nonzero"/><g clip-path="url(#54f7a3dc20)"><path fill="#ffffff" d="M 239.660156 45.988281 L 240.460938 43.652344 L 222.550781 43.652344 L 223.054688 42.117188 L 235.589844 42.117188 L 236.003906 40.90625 L 237.640625 36.03125 L 238.410156 33.695312 L 225.90625 33.695312 L 226.53125 31.832031 L 244.414062 31.832031 L 244.828125 30.621094 L 246.609375 25.363281 L 247.414062 23.027344 L 216.816406 23.027344 L 216.398438 24.238281 L 209.894531 43.652344 L 192.101562 43.652344 L 198.28125 25.363281 L 199.082031 23.027344 L 186.425781 23.027344 L 186.011719 24.238281 L 179.507812 43.652344 L 161.832031 43.652344 L 168.011719 25.363281 L 168.8125 23.027344 L 156.128906 23.027344 L 155.710938 24.238281 L 147.007812 50.066406 L 140.800781 24.386719 L 140.472656 23.027344 L 125.414062 23.027344 L 124.878906 23.738281 L 105.628906 49.03125 L 113.621094 25.332031 L 114.421875 23 L 101.855469 23 L 101.441406 24.210938 L 98.234375 33.695312 L 92.914062 33.695312 L 95.738281 25.363281 L 96.511719 23.027344 L 83.855469 23.027344 L 83.441406 24.238281 L 77.648438 41.464844 L 64.519531 41.464844 L 63.984375 42.085938 C 63.003906 43.238281 62.023438 43.769531 60.984375 43.769531 L 56.410156 43.769531 C 55.726562 43.769531 55.546875 43.5625 55.429688 43.417969 C 55.011719 42.824219 54.921875 41.054688 55.933594 37.980469 C 57.714844 32.75 59.914062 31.65625 61.429688 31.65625 L 66.0625 31.65625 C 66.925781 31.65625 67.25 31.921875 67.371094 32.75 L 67.578125 34.285156 L 79.964844 34.285156 L 80.144531 32.71875 C 80.527344 29.617188 79.996094 27.253906 78.507812 25.539062 L 78.449219 25.480469 C 76.757812 23.707031 74.171875 22.820312 70.578125 22.820312 L 60.746094 22.820312 C 56.496094 22.820312 53.050781 24.003906 50.171875 26.425781 C 47.40625 28.789062 45.269531 32.246094 43.636719 37.0625 C 41.644531 43.003906 41.613281 46.992188 43.515625 49.621094 C 45.0625 51.75 47.703125 52.785156 51.625 52.785156 L 61.515625 52.785156 C 67.875 52.785156 72.804688 49.859375 76.132812 44.066406 L 77.617188 41.527344 L 74.707031 50.183594 L 73.90625 52.515625 L 86.527344 52.515625 L 86.945312 51.304688 L 90.035156 42.117188 L 95.320312 42.117188 L 92.589844 50.183594 L 91.785156 52.515625 L 116.621094 52.515625 L 117.15625 51.835938 L 120.273438 47.847656 L 134.234375 47.847656 L 135.039062 51.160156 L 135.363281 52.515625 L 237.402344 52.515625 L 237.816406 51.304688 Z M 132.125 39.191406 L 126.75 39.191406 L 130.847656 33.753906 Z M 132.125 39.191406 " fill-opacity="1" fill-rule="nonzero"/></g><path fill="#000000" d="M 139.078125 24.800781 L 126.304688 24.800781 L 106.550781 50.773438 L 115.757812 50.773438 L 119.414062 46.074219 L 135.601562 46.074219 L 136.730469 50.773438 L 145.34375 50.773438 Z M 123.183594 40.964844 L 131.710938 29.648438 L 134.382812 40.964844 Z M 103.105469 24.800781 L 99.480469 35.46875 L 90.421875 35.46875 L 94.015625 24.800781 L 85.132812 24.800781 L 76.371094 50.773438 L 85.253906 50.773438 L 88.785156 40.34375 L 97.847656 40.34375 L 94.3125 50.746094 L 103.195312 50.746094 L 111.925781 24.800781 Z M 159.335938 45.425781 L 166.289062 24.800781 L 157.40625 24.800781 L 148.644531 50.773438 L 175.378906 50.773438 L 177.160156 45.425781 Z M 189.636719 45.425781 L 196.617188 24.800781 L 187.703125 24.800781 L 179 50.773438 L 205.734375 50.773438 L 207.519531 45.425781 Z M 218.125 24.800781 L 209.417969 50.773438 L 236.152344 50.773438 L 237.996094 45.425781 L 220.082031 45.425781 L 221.804688 40.34375 L 234.34375 40.34375 L 235.976562 35.46875 L 223.441406 35.46875 L 225.28125 30.0625 L 243.195312 30.0625 L 244.976562 24.800781 Z M 318.171875 24.800781 L 309.40625 50.773438 L 336.171875 50.773438 L 337.953125 45.425781 L 320.101562 45.425781 L 321.765625 40.34375 L 334.328125 40.34375 L 335.964844 35.46875 L 323.457031 35.46875 L 325.300781 30.0625 L 343.210938 30.0625 L 344.964844 24.800781 Z M 269.574219 24.800781 L 264.136719 40.992188 L 263.542969 40.992188 L 260.335938 24.800781 L 248.957031 24.800781 L 240.195312 50.773438 L 249.074219 50.773438 L 254.453125 34.816406 L 255.046875 34.816406 L 258.910156 50.773438 L 269.691406 50.773438 L 278.425781 24.800781 Z M 303.464844 24.535156 L 293.542969 24.535156 C 286 24.535156 281.097656 28.671875 278.097656 37.566406 C 276.316406 42.824219 276.226562 46.429688 277.742188 48.558594 C 278.960938 50.210938 281.128906 51.011719 284.394531 51.011719 L 294.316406 51.011719 C 301.863281 51.011719 306.824219 46.667969 309.972656 37.390625 L 310.121094 36.886719 L 294.257812 36.886719 L 292.625 41.851562 L 299.097656 41.851562 C 299.097656 41.851562 298.980469 42.117188 298.800781 42.382812 C 297.289062 44.511719 295.652344 45.542969 293.78125 45.542969 L 289.148438 45.542969 C 288.050781 45.542969 287.277344 45.191406 286.742188 44.449219 C 285.582031 42.824219 286.238281 39.695312 287.007812 37.417969 C 288.671875 32.453125 291.167969 29.882812 294.199219 29.882812 L 298.832031 29.882812 C 300.613281 29.882812 301.683594 30.800781 301.890625 32.542969 L 311.160156 32.542969 C 311.457031 29.941406 311.070312 28.023438 309.941406 26.75 C 308.722656 25.246094 306.527344 24.535156 303.464844 24.535156 Z M 70.636719 24.59375 L 60.746094 24.59375 C 53.199219 24.59375 48.328125 28.730469 45.328125 37.625 C 43.574219 42.882812 43.457031 46.488281 44.972656 48.585938 C 46.191406 50.242188 48.359375 51.039062 51.625 51.039062 L 61.515625 51.039062 C 67.28125 51.039062 71.558594 48.5 74.585938 43.210938 L 65.347656 43.210938 C 64.011719 44.746094 62.585938 45.542969 60.984375 45.542969 L 56.410156 45.542969 C 55.308594 45.542969 54.535156 45.191406 54.003906 44.449219 C 52.84375 42.824219 53.496094 39.722656 54.269531 37.417969 C 55.933594 32.453125 58.398438 29.855469 61.457031 29.855469 L 66.09375 29.855469 C 67.875 29.855469 68.945312 30.769531 69.152344 32.484375 L 78.417969 32.484375 C 78.71875 29.882812 78.332031 27.992188 77.203125 26.691406 C 75.894531 25.304688 73.726562 24.59375 70.636719 24.59375 Z M 70.636719 24.59375 " fill-opacity="1" fill-rule="nonzero"/><g clip-path="url(#7657332086)"><path fill="#ff0101" d="M 7.300781 23 L 37.355469 23 L 37.355469 53.054688 L 7.300781 53.054688 Z M 7.300781 23 " fill-opacity="1" fill-rule="nonzero"/></g><path fill="#ffffff" d="M 23.765625 46.558594 C 25.953125 46.558594 27.722656 44.789062 27.722656 42.601562 C 27.722656 40.414062 25.953125 38.644531 23.765625 38.644531 C 21.578125 38.644531 19.8125 40.414062 19.8125 42.601562 C 19.78125 44.820312 21.578125 46.558594 23.765625 46.558594 Z M 34.765625 40.082031 C 27.152344 57.375 8.480469 47.1875 16.09375 30.015625 C 16.363281 29.414062 16.304688 29.324219 15.644531 29.835938 C 10.21875 33.96875 7.222656 45.480469 12.617188 53 L 30.390625 53 C 32.9375 50.214844 34.796875 46.019531 35.066406 40.175781 C 35.09375 39.785156 34.914062 39.785156 34.765625 40.082031 Z M 34.765625 40.082031 " fill-opacity="1" fill-rule="nonzero"/></svg>