<svg xmlns="http://www.w3.org/2000/svg" xmlns:xlink="http://www.w3.org/1999/xlink" width="510" zoomAndPan="magnify" viewBox="0 0 382.5 74.999997" height="100" preserveAspectRatio="xMidYMid meet" version="1.0"><defs><clipPath id="07df07afc6"><path d="M 41.25 11 L 226.5 11 L 226.5 58 L 41.25 58 Z M 41.25 11 " clip-rule="nonzero"/></clipPath><clipPath id="d7c6732bd8"><path d="M 7.300781 23.691406 L 36.578125 23.691406 L 36.578125 52.972656 L 7.300781 52.972656 Z M 7.300781 23.691406 " clip-rule="nonzero"/></clipPath><clipPath id="26b5e488f5"><path d="M 9 30 L 35 30 L 35 52.941406 L 9 52.941406 Z M 9 30 " clip-rule="nonzero"/></clipPath></defs><path fill="#ffffff" d="M 166.144531 19.566406 C 166.1875 19.566406 166.25 19.566406 166.292969 19.566406 C 167.820312 19.539062 169.066406 19.015625 169.996094 18.027344 L 170.054688 17.96875 L 170.863281 13.988281 L 170.789062 13.882812 C 170.398438 13.3125 169.679688 12.566406 167.882812 12.566406 C 167.820312 12.566406 167.746094 12.566406 167.6875 12.566406 C 166.234375 12.609375 165.003906 13.132812 164 14.105469 L 163.941406 14.167969 L 163.128906 18.132812 L 163.207031 18.234375 C 163.820312 19.117188 164.808594 19.566406 166.144531 19.566406 Z M 166.144531 19.566406 " fill-opacity="1" fill-rule="nonzero"/><path fill="#ffffff" d="M 175.691406 19.328125 C 175.75 19.328125 175.796875 19.328125 175.855469 19.328125 C 178.105469 19.269531 179.246094 18.144531 179.621094 17.789062 L 179.679688 17.726562 L 180.457031 13.71875 L 180.398438 13.613281 C 179.84375 12.730469 178.839844 12.28125 177.445312 12.28125 C 177.371094 12.28125 177.3125 12.28125 177.234375 12.28125 C 175.765625 12.324219 174.507812 12.847656 173.488281 13.835938 L 173.429688 13.898438 L 172.648438 17.890625 L 172.722656 17.996094 C 173.113281 18.566406 173.847656 19.328125 175.691406 19.328125 Z M 175.691406 19.328125 " fill-opacity="1" fill-rule="nonzero"/><path fill="#ffffff" d="M 225.90625 19.925781 L 224.4375 27.019531 L 212.535156 27.230469 L 211.351562 33.003906 L 219.191406 32.898438 L 217.691406 39.933594 L 209.898438 40.007812 L 207.140625 53.429688 L 198.386719 53.429688 L 205.148438 20.40625 Z M 176.351562 21.242188 L 164.855469 21.511719 L 152.742188 48.65625 L 151.902344 53.203125 L 158.617188 53.203125 L 161.40625 46.53125 L 169.710938 46.5 L 169.800781 53.21875 L 176.921875 53.21875 L 177.789062 48.597656 Z M 164.074219 40.007812 L 168.617188 29.039062 L 169.394531 29.023438 L 169.5625 39.960938 Z M 134.125 22.035156 L 113.679688 22.515625 L 112.421875 29.054688 L 118.6875 28.949219 L 113.992188 53.339844 L 121.730469 53.355469 L 126.480469 28.800781 L 132.792969 28.679688 Z M 106.542969 46.84375 L 111.175781 22.574219 L 103.546875 22.738281 L 97.761719 53.324219 L 113.167969 53.339844 L 114.429688 46.816406 Z M 90.398438 46.90625 L 94.914062 22.949219 L 87.476562 23.113281 L 81.8125 53.308594 L 96.847656 53.324219 L 98.074219 46.875 Z M 86.832031 23.128906 L 82.289062 47.324219 L 82.277344 47.355469 C 81.242188 49.328125 78.125 53.921875 71.332031 53.921875 L 71.320312 53.921875 C 68.648438 53.921875 66.355469 53.144531 64.664062 51.691406 C 63.34375 50.554688 62.398438 49 62.070312 47.398438 L 62.054688 47.339844 L 66.445312 23.59375 L 73.640625 23.429688 L 69.503906 45.664062 C 69.804688 46.964844 71.003906 47.429688 72.039062 47.429688 L 72.054688 47.429688 C 73.71875 47.429688 74.75 46.410156 75.320312 45.558594 L 79.488281 23.292969 Z M 64.679688 29.847656 L 55.355469 30.011719 L 54.425781 35.070312 L 60.585938 34.980469 L 59.386719 41.265625 L 53.285156 41.308594 L 51.128906 53.203125 L 44.171875 53.1875 L 49.492188 23.90625 L 65.832031 23.53125 Z M 191.460938 27.617188 L 203.003906 27.410156 L 204.425781 20.421875 L 184.28125 20.882812 L 177.730469 53.398438 L 186.230469 53.414062 L 188.914062 40.1875 L 196.453125 40.125 L 197.921875 33.183594 L 190.308594 33.289062 Z M 153.730469 36.535156 L 153.703125 36.582031 C 152.488281 38.585938 150.792969 40.097656 148.769531 40.964844 L 151.679688 48.460938 L 150.808594 52.996094 L 144.917969 52.996094 L 141.425781 41.96875 L 138.789062 41.980469 L 136.671875 52.980469 L 129.132812 52.980469 L 135.160156 22.007812 L 135.398438 22.007812 C 136.613281 21.976562 147.195312 21.738281 147.300781 21.738281 C 147.8125 21.738281 148.289062 21.765625 148.769531 21.8125 C 148.8125 21.816406 148.855469 21.824219 148.898438 21.828125 C 149.089844 21.855469 149.292969 21.878906 149.488281 21.917969 L 149.503906 21.917969 L 149.535156 21.933594 C 150.539062 22.113281 151.4375 22.410156 152.21875 22.816406 L 152.234375 22.816406 L 152.832031 23.203125 C 152.898438 23.25 152.964844 23.292969 153.03125 23.339844 C 153.164062 23.429688 153.296875 23.519531 153.417969 23.609375 C 154.40625 24.429688 155.140625 25.507812 155.589844 26.824219 L 155.621094 26.898438 Z M 144.886719 28.007812 L 141.574219 28.066406 L 139.941406 36.132812 L 143.027344 36.207031 C 144.769531 36.175781 146.085938 35.546875 146.835938 34.382812 L 147.75 29.726562 C 147.480469 28.648438 146.445312 28.007812 144.976562 28.007812 Z M 144.886719 28.007812 " fill-opacity="1" fill-rule="evenodd"/><path fill="#000000" d="M 148.199219 29.621094 C 147.871094 28.335938 146.671875 27.558594 144.976562 27.558594 C 144.949219 27.558594 144.917969 27.558594 144.871094 27.558594 L 141.199219 27.617188 L 139.386719 36.683594 L 143.027344 36.640625 C 144.949219 36.609375 146.386719 35.921875 147.226562 34.605469 L 147.269531 34.53125 L 148.214844 29.699219 Z M 144.0625 35.9375 C 143.988281 35.953125 143.914062 35.96875 143.839844 35.980469 C 143.582031 36.011719 143.3125 36.042969 143.027344 36.042969 L 140.285156 36.070312 L 141.15625 31.703125 C 141.335938 31.6875 141.515625 31.6875 141.695312 31.6875 C 142.667969 31.6875 144.332031 31.867188 144.617188 33.078125 C 144.542969 33.453125 144.183594 35.277344 144.0625 35.9375 Z M 144.0625 35.9375 " fill-opacity="1" fill-rule="nonzero"/><path fill="#000000" d="M 168.316406 28.589844 L 163.371094 40.574219 L 170.039062 40.515625 L 169.859375 28.574219 Z M 166.382812 35.324219 L 166.457031 39.753906 L 164.554688 39.769531 Z M 166.382812 35.324219 " fill-opacity="1" fill-rule="nonzero"/><g clip-path="url(#07df07afc6)"><path fill="#000000" d="M 60.8125 34.816406 L 54.664062 34.90625 L 54.933594 33.46875 L 62.101562 33.332031 L 62.398438 32.976562 L 59.175781 50.421875 L 59.160156 50.496094 L 59.175781 50.570312 C 59.507812 52.203125 60.464844 53.816406 61.828125 54.984375 C 63.554688 56.464844 65.890625 57.257812 68.589844 57.257812 L 68.621094 57.257812 C 74.136719 57.257812 77.988281 53.128906 77.988281 53.128906 L 80.011719 50.78125 L 78.917969 56.660156 L 94.148438 56.660156 L 95.03125 55.613281 L 94.746094 56.660156 L 110.472656 56.660156 L 111.25 55.75 L 111.101562 56.660156 L 119.03125 56.660156 L 121.863281 53.535156 L 121.863281 53.519531 L 126 32.078125 L 130.199219 32.003906 L 130.859375 31.238281 L 125.910156 56.660156 L 134.035156 56.660156 L 136.945312 53.25 L 138.398438 45.707031 L 141.84375 56.644531 L 148.320312 56.660156 L 148.875 56.019531 L 148.753906 56.691406 L 156.128906 56.675781 L 158.828125 53.5625 L 160.3125 50.03125 L 166.636719 50.003906 L 166.726562 56.675781 L 183.652344 56.675781 L 186.335938 53.59375 L 186.351562 53.59375 L 188.386719 43.523438 L 188.386719 43.492188 L 193.859375 43.449219 L 196.574219 40.304688 L 196.585938 40.304688 L 198.117188 33.035156 L 190.5 33.140625 L 190.953125 30.910156 L 200.410156 30.746094 L 200.90625 30.160156 L 195.523438 56.675781 L 204.546875 56.675781 L 207.261719 53.625 L 207.273438 53.625 L 209.386719 43.328125 L 215.101562 43.285156 L 217.8125 40.140625 L 217.828125 40.140625 L 219.402344 32.765625 L 211.546875 32.871094 L 212.027344 30.535156 L 221.859375 30.355469 L 224.574219 27.214844 L 224.589844 27.214844 L 226.132812 19.792969 L 205.027344 20.269531 L 204.53125 20.855469 L 204.652344 20.269531 L 184.175781 20.75 L 181.460938 23.890625 L 177.804688 42.027344 L 176.742188 21.589844 C 176.9375 21.421875 177.234375 21.140625 177.234375 21.140625 L 180.023438 17.90625 L 180.039062 17.800781 L 180.816406 13.808594 L 180.847656 13.671875 L 180.773438 13.554688 C 180.171875 12.503906 179.019531 11.953125 177.445312 11.953125 C 177.371094 11.953125 177.3125 11.953125 177.234375 11.953125 C 174.867188 12.027344 173.203125 13.671875 173.203125 13.671875 L 173.128906 13.746094 C 172.484375 14.496094 171.839844 15.242188 171.195312 15.992188 L 169.964844 20.527344 C 170.101562 20.792969 170.265625 20.972656 170.429688 21.078125 L 167.730469 21.09375 L 167.808594 21.050781 L 170.160156 18.222656 L 171.148438 13.910156 L 171.179688 13.808594 C 170.863281 13.328125 170.117188 12.234375 167.910156 12.234375 C 167.851562 12.234375 167.777344 12.234375 167.703125 12.234375 C 165.363281 12.3125 163.714844 13.941406 163.714844 13.941406 L 163.640625 14.015625 C 163.054688 14.691406 162.097656 15.8125 161.480469 16.515625 L 160.539062 21.109375 C 160.988281 21.574219 162.082031 22.5 163.535156 22.292969 L 161.527344 24.519531 L 151.378906 47.097656 L 149.011719 41.113281 C 149.011719 41.113281 149.28125 40.964844 149.308594 40.949219 C 151.152344 40.035156 152.726562 38.554688 153.882812 36.65625 L 153.898438 36.625 L 155.785156 26.914062 L 155.769531 26.871094 C 154.570312 23.324219 151.527344 21.5 146.941406 21.601562 L 113.542969 22.351562 L 113.542969 22.367188 L 110.785156 25.449219 L 111.28125 22.84375 L 111.371094 22.410156 L 103.410156 22.589844 L 100.699219 25.734375 L 96.710938 46.726562 L 90.582031 46.753906 L 92.710938 35.457031 L 95.015625 23.234375 L 95.09375 22.800781 L 87.3125 22.980469 L 86.921875 23.429688 L 86.996094 22.996094 L 79.308594 23.175781 L 76.59375 26.316406 L 72.710938 47.21875 L 72.699219 47.21875 C 72.609375 47.234375 72.15625 47.277344 72.039062 47.277344 L 72.023438 47.277344 C 70.855469 47.277344 70.015625 46.753906 69.714844 45.859375 C 69.699219 45.796875 69.667969 45.738281 69.65625 45.679688 L 73.835938 23.234375 L 66.328125 23.398438 L 65.980469 23.816406 L 66.027344 23.367188 L 49.34375 23.757812 L 46.628906 27.078125 L 41.25 56.691406 L 48.550781 56.660156 L 51.261719 53.546875 L 52.851562 44.796875 L 56.808594 44.765625 L 59.523438 41.625 M 170.234375 52.769531 L 170.144531 46.050781 L 161.09375 46.082031 L 158.320312 52.753906 L 152.441406 52.753906 L 153.175781 48.789062 L 165.152344 21.960938 L 175.933594 21.707031 L 177.339844 48.566406 L 176.546875 52.769531 Z M 173.714844 14.046875 C 174.671875 13.117188 175.855469 12.609375 177.25 12.582031 C 177.3125 12.582031 177.386719 12.582031 177.445312 12.582031 C 178.734375 12.582031 179.648438 12.984375 180.144531 13.761719 L 179.394531 17.578125 C 178.976562 17.980469 177.925781 18.984375 175.84375 19.027344 C 175.796875 19.027344 175.738281 19.027344 175.691406 19.027344 C 173.847656 19.027344 173.234375 18.222656 172.964844 17.832031 Z M 163.460938 18.070312 L 164.226562 14.316406 C 165.167969 13.386719 166.339844 12.894531 167.71875 12.847656 C 167.777344 12.847656 167.851562 12.847656 167.910156 12.847656 C 169.710938 12.847656 170.308594 13.65625 170.566406 14.03125 L 169.785156 17.816406 C 168.917969 18.746094 167.730469 19.222656 166.292969 19.253906 C 166.25 19.253906 166.1875 19.253906 166.144531 19.253906 C 164.34375 19.269531 163.699219 18.414062 163.460938 18.070312 Z M 145.246094 52.546875 L 141.753906 41.519531 L 138.425781 41.546875 L 136.3125 52.546875 L 129.6875 52.546875 L 135.535156 22.457031 C 136.613281 22.425781 144.738281 22.1875 147.300781 22.1875 C 148.859375 22.1875 151.078125 22.441406 152.816406 23.699219 C 153.835938 24.429688 154.632812 25.523438 155.15625 26.945312 L 153.3125 36.386719 C 152.144531 38.300781 150.507812 39.753906 148.605469 40.589844 L 148.230469 40.753906 L 151.242188 48.519531 L 150.464844 52.5625 Z M 114.535156 52.890625 L 119.226562 28.484375 L 112.976562 28.605469 L 114.054688 22.964844 L 133.570312 22.515625 L 132.417969 28.261719 L 126.105469 28.382812 L 121.371094 52.921875 Z M 98.300781 52.875 L 103.9375 23.1875 L 110.636719 23.039062 L 106.003906 47.308594 L 113.890625 47.277344 L 112.808594 52.90625 Z M 106.917969 46.53125 L 109.585938 32.511719 L 115.566406 32.40625 L 112.855469 46.5 Z M 82.351562 52.859375 L 87.851562 23.5625 L 94.371094 23.414062 L 89.859375 47.367188 L 97.535156 47.339844 L 96.484375 52.875 Z M 71.332031 53.488281 L 71.320312 53.488281 C 68.769531 53.488281 66.566406 52.753906 64.960938 51.363281 C 63.71875 50.300781 62.835938 48.835938 62.519531 47.339844 L 66.835938 23.96875 L 73.117188 23.832031 L 69.039062 45.679688 L 69.054688 45.722656 C 69.386719 47.324219 70.808594 47.890625 72.039062 47.890625 L 72.054688 47.890625 C 73.957031 47.890625 75.097656 46.742188 75.726562 45.78125 L 75.753906 45.738281 L 79.878906 23.742188 L 86.308594 23.59375 L 81.855469 47.175781 C 80.851562 49.089844 77.855469 53.488281 71.332031 53.488281 Z M 53.886719 35.535156 L 60.03125 35.445312 L 59.011719 40.816406 L 52.910156 40.875 L 50.753906 52.753906 L 44.710938 52.753906 L 49.867188 24.355469 L 65.292969 23.996094 L 64.304688 29.398438 L 54.996094 29.5625 Z M 210.796875 33.453125 L 218.636719 33.347656 L 217.320312 39.484375 L 209.523438 39.558594 L 206.765625 52.980469 L 198.925781 52.964844 L 205.523438 20.855469 L 225.367188 20.390625 L 224.078125 26.570312 L 212.175781 26.78125 Z M 189.753906 33.753906 L 197.351562 33.648438 L 196.078125 39.691406 L 188.523438 39.753906 L 185.839844 52.964844 L 178.253906 52.964844 L 184.640625 21.332031 L 203.859375 20.882812 L 202.613281 26.960938 L 191.070312 27.167969 Z M 189.753906 33.753906 " fill-opacity="1" fill-rule="nonzero"/></g><g clip-path="url(#d7c6732bd8)"><path fill="#ff0101" d="M 7.300781 23.691406 L 36.578125 23.691406 L 36.578125 52.972656 L 7.300781 52.972656 Z M 7.300781 23.691406 " fill-opacity="1" fill-rule="nonzero"/></g><g clip-path="url(#26b5e488f5)"><path fill="#ffffff" d="M 23.355469 46.660156 C 25.488281 46.660156 27.210938 44.9375 27.210938 42.804688 C 27.210938 40.671875 25.488281 38.945312 23.355469 38.945312 C 21.222656 38.945312 19.496094 40.671875 19.496094 42.804688 C 19.46875 44.964844 21.222656 46.660156 23.355469 46.660156 Z M 34.078125 40.347656 C 26.65625 57.210938 8.453125 47.273438 15.875 30.53125 C 16.136719 29.945312 16.078125 29.859375 15.4375 30.355469 C 10.148438 34.386719 7.226562 45.609375 12.484375 52.941406 L 29.8125 52.941406 C 32.296875 50.226562 34.109375 46.132812 34.371094 40.4375 C 34.402344 40.058594 34.226562 40.058594 34.078125 40.347656 Z M 34.078125 40.347656 " fill-opacity="1" fill-rule="nonzero"/></g></svg>