<svg xmlns="http://www.w3.org/2000/svg" xmlns:xlink="http://www.w3.org/1999/xlink" width="510" zoomAndPan="magnify" viewBox="0 0 382.5 74.999997" height="100" preserveAspectRatio="xMidYMid meet" version="1.0"><defs><clipPath id="9e4261e4fe"><path d="M 41.25 22.378906 L 80 22.378906 L 80 53 L 41.25 53 Z M 41.25 22.378906 " clip-rule="nonzero"/></clipPath><clipPath id="0035c4fd05"><path d="M 109 22.378906 L 146 22.378906 L 146 53.128906 L 109 53.128906 Z M 109 22.378906 " clip-rule="nonzero"/></clipPath><clipPath id="3ce78115ac"><path d="M 81 22.378906 L 115 22.378906 L 115 53 L 81 53 Z M 81 22.378906 " clip-rule="nonzero"/></clipPath><clipPath id="d827ca8b0f"><path d="M 147 22.378906 L 152.25 22.378906 L 152.25 28 L 147 28 Z M 147 22.378906 " clip-rule="nonzero"/></clipPath></defs><g clip-path="url(#9e4261e4fe)"><path fill="#ffde00" d="M 59.25 28.070312 L 41.25 52.679688 L 52.332031 52.679688 L 55.972656 47.433594 L 66.121094 47.433594 L 65.367188 52.679688 L 75.03125 52.679688 L 79.203125 22.828125 L 70.378906 22.828125 C 64.039062 22.828125 62.175781 24.050781 59.25 28.070312 Z M 67.230469 40.179688 L 61.007812 40.179688 L 68.558594 29.296875 L 68.914062 29.296875 Z M 67.230469 40.179688 " fill-opacity="1" fill-rule="nonzero"/></g><g clip-path="url(#0035c4fd05)"><path fill="#ffde00" d="M 132.136719 30.5625 L 145.304688 30.5625 C 146.589844 24.96875 145.261719 22.390625 133.203125 22.390625 C 120.476562 22.390625 117.109375 24.402344 111.789062 36.902344 C 107.664062 46.601562 108.152344 53.117188 122.5625 53.117188 C 135.863281 53.117188 138.167969 49.269531 143.488281 36.507812 L 144.597656 33.839844 L 132.804688 33.839844 C 128.855469 33.839844 128.058594 34.191406 126.328125 38.082031 L 125 41.050781 L 130.851562 41.050781 C 129.390625 44.855469 128.414062 45.378906 124.824219 45.378906 C 120.253906 45.378906 119.414062 44.332031 122.5625 36.902344 C 125.222656 30.648438 126.730469 30.5625 132.136719 30.5625 Z M 132.136719 30.5625 " fill-opacity="1" fill-rule="nonzero"/></g><g clip-path="url(#3ce78115ac)"><path fill="#ffde00" d="M 112.097656 29.03125 L 114.800781 22.828125 L 91.214844 22.828125 C 85.40625 22.828125 84.390625 23.394531 81.992188 28.859375 L 81.019531 31.089844 L 92.058594 31.089844 L 82.746094 52.679688 L 93.566406 52.679688 L 102.832031 31.089844 L 108.152344 31.089844 C 110.902344 31.089844 111.476562 30.476562 112.097656 29.03125 Z M 112.097656 29.03125 " fill-opacity="1" fill-rule="nonzero"/></g><g clip-path="url(#d827ca8b0f)"><path fill="#ffde00" d="M 149.800781 22.472656 C 148.222656 22.472656 147.351562 23.527344 147.351562 24.886719 C 147.351562 26.25 148.222656 27.300781 149.800781 27.300781 C 151.378906 27.300781 152.25 26.25 152.25 24.886719 C 152.25 23.527344 151.378906 22.472656 149.800781 22.472656 Z M 149.800781 26.953125 C 148.371094 26.953125 147.738281 26.003906 147.738281 24.886719 C 147.738281 23.777344 148.371094 22.820312 149.800781 22.820312 C 151.226562 22.820312 151.863281 23.777344 151.863281 24.886719 C 151.863281 26.003906 151.226562 26.953125 149.800781 26.953125 Z M 149.800781 26.953125 " fill-opacity="1" fill-rule="nonzero"/></g><path fill="#ffde00" d="M 150.398438 25.367188 C 150.304688 25.234375 150.238281 25.140625 150.148438 25.117188 L 150.148438 25.109375 C 150.601562 25.019531 150.785156 24.769531 150.785156 24.339844 C 150.785156 23.796875 150.503906 23.515625 149.710938 23.515625 C 149.46875 23.519531 149.226562 23.542969 148.988281 23.578125 C 148.957031 23.582031 148.949219 23.601562 148.949219 23.625 L 148.949219 26.101562 C 148.945312 26.128906 148.957031 26.140625 148.988281 26.136719 L 149.347656 26.136719 C 149.375 26.136719 149.382812 26.125 149.382812 26.101562 L 149.382812 25.144531 L 149.773438 25.144531 L 150.371094 26.082031 C 150.398438 26.125 150.402344 26.136719 150.457031 26.136719 L 150.851562 26.136719 C 150.894531 26.136719 150.898438 26.105469 150.882812 26.078125 Z M 149.71875 24.789062 L 149.382812 24.789062 L 149.382812 23.910156 C 149.433594 23.902344 149.597656 23.898438 149.71875 23.898438 C 150.214844 23.898438 150.3125 23.921875 150.3125 24.339844 C 150.3125 24.757812 150.210938 24.789062 149.71875 24.789062 Z M 149.71875 24.789062 " fill-opacity="1" fill-rule="nonzero"/></svg>