<svg xmlns="http://www.w3.org/2000/svg" xmlns:xlink="http://www.w3.org/1999/xlink" width="510" zoomAndPan="magnify" viewBox="0 0 382.5 74.999997" height="100" preserveAspectRatio="xMidYMid meet" version="1.0"><defs><clipPath id="a72c8dd394"><path d="M 43.167969 22 L 241.917969 22 L 241.917969 53 L 43.167969 53 Z M 43.167969 22 " clip-rule="nonzero"/></clipPath><clipPath id="c867028557"><path d="M 7.300781 22.316406 L 38.234375 22.316406 L 38.234375 53.25 L 7.300781 53.25 Z M 7.300781 22.316406 " clip-rule="nonzero"/></clipPath><clipPath id="de0607c2e5"><path d="M 9 28 L 36 28 L 36 53.066406 L 9 53.066406 Z M 9 28 " clip-rule="nonzero"/></clipPath></defs><g clip-path="url(#a72c8dd394)"><path fill="#ffffff" d="M 43.316406 51.46875 L 43.316406 42.046875 C 44.941406 44.265625 46.710938 45.375 48.605469 45.375 C 49.324219 45.375 49.894531 45.195312 50.347656 44.835938 C 50.796875 44.476562 51.007812 44.027344 51.007812 43.457031 C 51.007812 42.675781 50.527344 41.894531 49.535156 41.144531 L 48.183594 40.125 C 47.28125 39.464844 46.53125 38.832031 45.871094 38.171875 C 45.238281 37.542969 44.730469 36.882812 44.339844 36.191406 C 43.949219 35.5 43.648438 34.8125 43.46875 34.089844 C 43.289062 33.371094 43.199219 32.589844 43.199219 31.808594 C 43.199219 30.429688 43.527344 28.988281 44.1875 27.488281 C 44.519531 26.796875 44.878906 26.167969 45.328125 25.566406 C 45.75 24.996094 46.261719 24.484375 46.832031 24.035156 C 48.394531 22.773438 50.285156 22.113281 52.480469 22.113281 C 54.460938 22.113281 56.445312 22.625 58.425781 23.644531 L 58.425781 32.832031 C 57.765625 31.78125 56.984375 30.96875 56.113281 30.367188 C 55.242188 29.769531 54.402344 29.46875 53.589844 29.46875 C 52.960938 29.46875 52.417969 29.648438 52.027344 30.007812 C 51.609375 30.339844 51.398438 30.757812 51.398438 31.238281 C 51.398438 32.019531 51.96875 32.800781 53.078125 33.582031 L 54.402344 34.511719 C 56.144531 35.710938 57.40625 36.972656 58.15625 38.234375 C 58.9375 39.492188 59.296875 40.996094 59.296875 42.707031 C 59.296875 45.617188 58.367188 47.988281 56.535156 49.878906 C 54.703125 51.769531 52.359375 52.699219 49.566406 52.699219 C 47.613281 52.730469 45.539062 52.3125 43.316406 51.46875 Z M 72.453125 52.429688 L 64.34375 52.429688 L 64.34375 29.617188 L 59.867188 29.617188 L 59.867188 22.414062 L 77.109375 22.414062 L 77.109375 29.617188 L 72.453125 29.617188 Z M 99.816406 52.429688 L 91.046875 52.429688 L 87.050781 41.746094 C 87.019531 41.566406 86.929688 41.324219 86.839844 41.023438 C 86.75 40.722656 86.628906 40.363281 86.480469 39.945312 L 86.539062 41.925781 L 86.539062 52.402344 L 78.460938 52.402344 L 78.460938 22.445312 L 86.75 22.445312 C 90.414062 22.445312 93.148438 23.164062 94.949219 24.605469 C 97.261719 26.4375 98.402344 29.046875 98.402344 32.441406 C 98.402344 36.070312 96.84375 38.5625 93.75 39.945312 Z M 86.601562 35.890625 L 87.140625 35.890625 C 88.070312 35.890625 88.851562 35.53125 89.484375 34.8125 C 90.113281 34.089844 90.414062 33.191406 90.414062 32.078125 C 90.414062 29.828125 89.242188 28.71875 86.898438 28.71875 L 86.601562 28.71875 Z M 112.191406 52.429688 L 104.082031 52.429688 L 104.082031 39.734375 L 96.632812 22.445312 L 105.070312 22.445312 L 106.542969 26.886719 C 106.8125 27.757812 107.085938 28.597656 107.324219 29.378906 C 107.566406 30.1875 107.746094 30.9375 107.925781 31.691406 C 108.226562 30.578125 108.496094 29.648438 108.707031 28.839844 C 108.917969 28.027344 109.128906 27.398438 109.277344 26.917969 L 110.75 22.445312 L 119.160156 22.445312 L 112.191406 39.734375 Z M 141.714844 52.429688 L 132.976562 52.429688 L 127.597656 38.59375 L 127.808594 52.429688 L 119.699219 52.429688 L 119.699219 22.445312 L 127.808594 22.445312 L 127.597656 35.292969 L 132.375 22.445312 L 140.933594 22.445312 L 134.476562 36.914062 Z M 154.089844 52.429688 L 145.980469 52.429688 L 145.980469 29.617188 L 141.507812 29.617188 L 141.507812 22.414062 L 158.71875 22.414062 L 158.71875 29.617188 L 154.0625 29.617188 L 154.0625 52.429688 Z M 168.296875 52.429688 L 160.1875 52.429688 L 160.1875 22.445312 L 168.296875 22.445312 Z M 178.121094 52.429688 L 170.011719 52.429688 L 170.011719 22.445312 L 177.851562 22.445312 C 181.753906 22.445312 184.667969 23.253906 186.558594 24.847656 C 188.78125 26.738281 189.894531 29.347656 189.894531 32.679688 C 189.894531 36.3125 188.722656 39.042969 186.351562 40.816406 C 184.726562 42.015625 182.414062 42.617188 179.382812 42.617188 L 178.121094 42.617188 Z M 178.121094 36.3125 L 178.480469 36.34375 C 179.472656 36.34375 180.253906 36.042969 180.824219 35.441406 C 181.394531 34.839844 181.695312 34 181.695312 32.980469 C 181.695312 31.960938 181.425781 31.089844 180.855469 30.457031 C 180.28125 29.796875 179.5625 29.46875 178.691406 29.46875 L 178.121094 29.46875 Z M 190.914062 51.46875 L 190.914062 42.046875 C 192.539062 44.265625 194.308594 45.375 196.203125 45.375 C 196.921875 45.375 197.492188 45.195312 197.945312 44.835938 C 198.394531 44.476562 198.605469 44.027344 198.605469 43.457031 C 198.605469 42.675781 198.125 41.894531 197.132812 41.144531 L 195.78125 40.125 C 194.878906 39.464844 194.128906 38.832031 193.46875 38.171875 C 192.839844 37.542969 192.328125 36.882812 191.9375 36.191406 C 191.546875 35.5 191.246094 34.8125 191.066406 34.089844 C 190.886719 33.371094 190.796875 32.589844 190.796875 31.808594 C 190.796875 30.429688 191.125 28.988281 191.785156 27.488281 C 192.117188 26.796875 192.476562 26.167969 192.929688 25.566406 C 193.347656 24.996094 193.859375 24.484375 194.429688 24.035156 C 195.992188 22.773438 197.882812 22.113281 200.078125 22.113281 C 202.058594 22.113281 204.042969 22.625 206.023438 23.644531 L 206.023438 32.832031 C 205.363281 31.78125 204.582031 30.96875 203.710938 30.367188 C 202.839844 29.769531 202 29.46875 201.1875 29.46875 C 200.558594 29.46875 200.046875 29.648438 199.625 30.007812 C 199.207031 30.339844 198.996094 30.757812 198.996094 31.238281 C 198.996094 32.019531 199.566406 32.800781 200.675781 33.582031 L 202 34.511719 C 203.742188 35.710938 205.003906 36.972656 205.753906 38.234375 C 206.503906 39.492188 206.894531 40.996094 206.894531 42.707031 C 206.894531 45.617188 205.964844 47.988281 204.132812 49.878906 C 202.300781 51.769531 199.957031 52.699219 197.164062 52.699219 C 195.210938 52.730469 193.109375 52.3125 190.914062 51.46875 Z M 208.246094 52.429688 L 208.246094 22.445312 L 223.292969 22.445312 L 223.292969 29.648438 L 216.328125 29.648438 L 216.328125 33.878906 L 222.574219 33.878906 L 222.574219 41.085938 L 216.328125 41.085938 L 216.328125 45.257812 L 223.292969 45.257812 L 223.292969 52.460938 L 208.246094 52.460938 Z M 237.171875 52.429688 L 229.0625 52.429688 L 229.0625 29.617188 L 224.585938 29.617188 L 224.585938 22.414062 L 241.796875 22.414062 L 241.796875 29.617188 L 237.140625 29.617188 Z M 237.171875 52.429688 " fill-opacity="1" fill-rule="nonzero"/></g><g clip-path="url(#c867028557)"><path fill="#ff0101" d="M 7.300781 22.316406 L 38.234375 22.316406 L 38.234375 53.25 L 7.300781 53.25 Z M 7.300781 22.316406 " fill-opacity="1" fill-rule="nonzero"/></g><g clip-path="url(#de0607c2e5)"><path fill="#ffffff" d="M 24.179688 46.460938 C 26.421875 46.460938 28.234375 44.648438 28.234375 42.40625 C 28.234375 40.164062 26.421875 38.351562 24.179688 38.351562 C 21.9375 38.351562 20.125 40.164062 20.125 42.40625 C 20.09375 44.679688 21.9375 46.460938 24.179688 46.460938 Z M 35.453125 39.828125 C 27.648438 57.550781 8.511719 47.109375 16.316406 29.503906 C 16.589844 28.890625 16.53125 28.796875 15.855469 29.320312 C 10.292969 33.558594 7.222656 45.355469 12.75 53.066406 L 30.96875 53.066406 C 33.578125 50.210938 35.484375 45.910156 35.761719 39.917969 C 35.789062 39.519531 35.605469 39.519531 35.453125 39.828125 Z M 35.453125 39.828125 " fill-opacity="1" fill-rule="nonzero"/></g></svg>