<svg xmlns="http://www.w3.org/2000/svg" xmlns:xlink="http://www.w3.org/1999/xlink" width="510" zoomAndPan="magnify" viewBox="0 0 382.5 74.999997" height="100" preserveAspectRatio="xMidYMid meet" version="1.0"><defs><clipPath id="e7b3ebf0ba"><path d="M 42.703125 22 L 260 22 L 260 53 L 42.703125 53 Z M 42.703125 22 " clip-rule="nonzero"/></clipPath><clipPath id="ce2c7075f4"><path d="M 7.300781 21.9375 L 37.832031 21.9375 L 37.832031 52.46875 L 7.300781 52.46875 Z M 7.300781 21.9375 " clip-rule="nonzero"/></clipPath><clipPath id="0b00ba3810"><path d="M 9 28 L 36 28 L 36 51.9375 L 9 51.9375 Z M 9 28 " clip-rule="nonzero"/></clipPath></defs><g clip-path="url(#e7b3ebf0ba)"><path fill="#ffffff" d="M 42.847656 52.488281 L 42.847656 22.957031 L 57.5625 22.957031 L 57.5625 30.042969 L 50.761719 30.042969 L 50.761719 34.207031 L 56.859375 34.207031 L 56.859375 41.296875 L 50.761719 41.296875 L 50.761719 45.402344 L 57.5625 45.402344 L 57.5625 52.488281 Z M 71.191406 22.957031 L 79.105469 22.957031 L 79.105469 43.835938 C 79.105469 45.550781 78.839844 46.9375 78.28125 48 C 77.753906 49.121094 76.875 50.125 75.617188 51.011719 C 73.945312 52.222656 71.921875 52.8125 69.519531 52.8125 C 66.824219 52.8125 64.539062 52.164062 62.691406 50.804688 C 60.347656 49.121094 59.203125 46.40625 59.203125 42.683594 L 59.203125 22.957031 L 67.117188 22.957031 L 67.117188 42.242188 C 67.117188 43.511719 67.261719 44.425781 67.585938 44.957031 C 67.90625 45.488281 68.40625 45.753906 69.140625 45.753906 C 69.902344 45.753906 70.429688 45.519531 70.722656 45.015625 C 71.015625 44.484375 71.160156 43.570312 71.160156 42.269531 C 71.191406 42.242188 71.191406 22.957031 71.191406 22.957031 Z M 101.640625 52.488281 L 93.082031 52.488281 L 89.15625 41.976562 C 89.128906 41.796875 89.039062 41.5625 88.953125 41.265625 C 88.863281 40.972656 88.746094 40.617188 88.601562 40.203125 L 88.660156 42.152344 L 88.660156 52.488281 L 80.773438 52.488281 L 80.773438 22.957031 L 88.894531 22.957031 C 92.46875 22.957031 95.136719 23.664062 96.894531 25.082031 C 99.152344 26.886719 100.265625 29.484375 100.265625 32.820312 C 100.265625 36.394531 98.742188 38.84375 95.722656 40.234375 Z M 88.6875 36.1875 L 89.214844 36.1875 C 90.125 36.1875 90.886719 35.832031 91.5 35.125 C 92.117188 34.414062 92.410156 33.53125 92.410156 32.4375 C 92.410156 30.222656 91.265625 29.128906 88.980469 29.128906 L 88.6875 29.128906 Z M 123.917969 37.8125 C 123.917969 42.269531 122.863281 45.902344 120.78125 48.679688 C 118.699219 51.457031 116.003906 52.84375 112.664062 52.84375 C 109.703125 52.84375 107.152344 51.78125 105.042969 49.652344 C 102.375 46.9375 101.054688 42.890625 101.054688 37.488281 C 101.054688 32.320312 102.433594 28.332031 105.21875 25.613281 C 107.269531 23.578125 109.730469 22.574219 112.574219 22.574219 C 116.03125 22.574219 118.789062 23.960938 120.839844 26.707031 C 122.890625 29.453125 123.917969 33.175781 123.917969 37.8125 Z M 115.503906 37.898438 C 115.503906 32.527344 114.539062 29.839844 112.632812 29.839844 C 111.664062 29.839844 110.902344 30.546875 110.347656 31.964844 C 109.789062 33.265625 109.496094 35.183594 109.496094 37.722656 C 109.496094 40.234375 109.761719 42.152344 110.289062 43.539062 C 110.816406 44.929688 111.546875 45.609375 112.484375 45.609375 C 113.453125 45.609375 114.1875 44.929688 114.714844 43.570312 C 115.210938 42.210938 115.503906 40.320312 115.503906 37.898438 Z M 133.265625 52.488281 L 125.351562 52.488281 L 125.351562 22.957031 L 133.03125 22.957031 C 136.84375 22.957031 139.683594 23.753906 141.53125 25.320312 C 143.699219 27.179688 144.785156 29.75 144.785156 33.027344 C 144.785156 36.601562 143.613281 39.289062 141.296875 41.058594 C 139.714844 42.242188 137.457031 42.832031 134.46875 42.832031 L 133.265625 42.832031 Z M 133.265625 36.601562 L 133.617188 36.628906 C 134.585938 36.628906 135.347656 36.335938 135.902344 35.746094 C 136.460938 35.152344 136.753906 34.328125 136.753906 33.292969 C 136.753906 32.257812 136.460938 31.433594 135.902344 30.8125 C 135.347656 30.164062 134.644531 29.839844 133.765625 29.839844 L 133.265625 29.839844 Z M 164.714844 52.488281 L 156.539062 52.488281 L 155.949219 48.738281 L 150.617188 48.738281 L 149.972656 52.488281 L 141.796875 52.488281 L 148.828125 22.957031 L 158.5 22.957031 Z M 155.011719 42.535156 L 154.484375 39.082031 C 154.484375 39.082031 154.457031 38.902344 154.398438 38.550781 C 154.367188 38.285156 154.25 37.160156 153.988281 35.210938 C 153.957031 35.007812 153.929688 34.710938 153.898438 34.328125 C 153.839844 33.855469 153.8125 33.382812 153.753906 32.910156 L 153.519531 30.105469 C 153.488281 30.398438 153.460938 30.695312 153.402344 30.988281 C 153.34375 31.34375 153.3125 31.726562 153.253906 32.082031 C 153.195312 32.644531 153.136719 33.175781 153.078125 33.734375 C 153.050781 34.03125 153.019531 34.238281 152.992188 34.296875 L 152.433594 37.871094 L 151.644531 42.507812 Z M 174.003906 52.488281 L 166.09375 52.488281 L 166.09375 30.042969 L 161.726562 30.042969 L 161.726562 22.957031 L 178.546875 22.957031 L 178.546875 30.042969 L 174.003906 30.042969 Z M 187.898438 52.488281 L 179.984375 52.488281 L 179.984375 22.957031 L 187.898438 22.957031 Z M 197.511719 52.488281 L 189.597656 52.488281 L 189.597656 22.957031 L 197.277344 22.957031 C 201.085938 22.957031 203.929688 23.753906 205.777344 25.320312 C 207.945312 27.179688 209.027344 29.75 209.027344 33.027344 C 209.027344 36.601562 207.855469 39.289062 205.570312 41.058594 C 203.988281 42.242188 201.703125 42.832031 198.742188 42.832031 L 197.511719 42.832031 Z M 197.511719 36.601562 L 197.863281 36.628906 C 198.828125 36.628906 199.59375 36.335938 200.148438 35.746094 C 200.707031 35.152344 201 34.328125 201 33.292969 C 201 32.257812 200.707031 31.433594 200.179688 30.8125 C 199.621094 30.164062 198.917969 29.839844 198.039062 29.839844 L 197.480469 29.839844 L 197.480469 36.601562 Z M 209.996094 51.542969 L 209.996094 42.269531 C 211.578125 44.457031 213.308594 45.550781 215.15625 45.550781 C 215.859375 45.550781 216.414062 45.371094 216.855469 45.015625 C 217.292969 44.664062 217.5 44.21875 217.5 43.660156 C 217.5 42.890625 217.03125 42.125 216.0625 41.386719 L 214.746094 40.378906 C 213.863281 39.730469 213.132812 39.109375 212.488281 38.460938 C 211.871094 37.839844 211.375 37.191406 210.964844 36.511719 C 210.582031 35.832031 210.289062 35.152344 210.113281 34.445312 C 209.9375 33.734375 209.851562 32.96875 209.851562 32.171875 C 209.851562 30.8125 210.171875 29.394531 210.816406 27.917969 C 211.140625 27.238281 211.519531 26.589844 211.929688 26.027344 C 212.339844 25.46875 212.839844 24.9375 213.394531 24.523438 C 214.921875 23.28125 216.765625 22.632812 218.90625 22.632812 C 220.839844 22.632812 222.773438 23.132812 224.710938 24.136719 L 224.710938 33.175781 C 224.066406 32.140625 223.300781 31.34375 222.453125 30.753906 C 221.601562 30.164062 220.78125 29.867188 219.960938 29.867188 C 219.347656 29.867188 218.816406 30.042969 218.4375 30.398438 C 218.027344 30.753906 217.820312 31.136719 217.820312 31.609375 C 217.820312 32.378906 218.378906 33.144531 219.464844 33.914062 L 220.753906 34.828125 C 222.453125 36.011719 223.683594 37.25 224.417969 38.492188 C 225.148438 39.730469 225.53125 41.207031 225.53125 42.890625 C 225.53125 45.753906 224.621094 48.117188 222.832031 49.949219 C 221.046875 51.808594 218.757812 52.726562 216.003906 52.726562 C 214.1875 52.785156 212.164062 52.371094 209.996094 51.542969 Z M 226.9375 52.488281 L 226.9375 22.957031 L 241.648438 22.957031 L 241.648438 30.042969 L 234.851562 30.042969 L 234.851562 34.207031 L 240.945312 34.207031 L 240.945312 41.296875 L 234.851562 41.296875 L 234.851562 45.402344 L 241.648438 45.402344 L 241.648438 52.488281 Z M 255.191406 52.488281 L 247.277344 52.488281 L 247.277344 30.042969 L 242.910156 30.042969 L 242.910156 22.957031 L 259.734375 22.957031 L 259.734375 30.042969 L 255.191406 30.042969 Z M 255.191406 52.488281 " fill-opacity="1" fill-rule="nonzero"/></g><g clip-path="url(#ce2c7075f4)"><path fill="#ff0101" d="M 7.300781 21.9375 L 37.832031 21.9375 L 37.832031 52.46875 L 7.300781 52.46875 Z M 7.300781 21.9375 " fill-opacity="1" fill-rule="nonzero"/></g><g clip-path="url(#0b00ba3810)"><path fill="#ffffff" d="M 23.769531 45.492188 C 25.957031 45.492188 27.726562 43.722656 27.726562 41.535156 C 27.726562 39.347656 25.957031 37.578125 23.769531 37.578125 C 21.582031 37.578125 19.8125 39.347656 19.8125 41.535156 C 19.78125 43.753906 21.582031 45.492188 23.769531 45.492188 Z M 34.769531 39.019531 C 27.15625 56.3125 8.484375 46.121094 16.097656 28.949219 C 16.367188 28.347656 16.304688 28.257812 15.648438 28.769531 C 10.222656 32.90625 7.226562 44.414062 12.621094 51.9375 L 30.390625 51.9375 C 32.941406 49.148438 34.796875 44.953125 35.066406 39.109375 C 35.097656 38.71875 34.917969 38.71875 34.769531 39.019531 Z M 34.769531 39.019531 " fill-opacity="1" fill-rule="nonzero"/></g></svg>