<svg xmlns="http://www.w3.org/2000/svg" xmlns:xlink="http://www.w3.org/1999/xlink" width="510" zoomAndPan="magnify" viewBox="0 0 382.5 74.999997" height="100" preserveAspectRatio="xMidYMid meet" version="1.0"><defs><clipPath id="c459b874f4"><path d="M 42 22 L 224.117188 22 L 224.117188 53 L 42 53 Z M 42 22 " clip-rule="nonzero"/></clipPath><clipPath id="8f77350ef5"><path d="M 7.300781 22.722656 L 37.113281 22.722656 L 37.113281 52.535156 L 7.300781 52.535156 Z M 7.300781 22.722656 " clip-rule="nonzero"/></clipPath><clipPath id="478bb7437b"><path d="M 9 29 L 35 29 L 35 51.972656 L 9 51.972656 Z M 9 29 " clip-rule="nonzero"/></clipPath></defs><g clip-path="url(#c459b874f4)"><path fill="#ffffff" d="M 82.441406 37.703125 C 82.441406 42.234375 81.367188 45.925781 79.25 48.746094 C 77.132812 51.566406 74.386719 52.976562 70.984375 52.976562 C 67.972656 52.976562 65.378906 51.894531 63.230469 49.734375 C 60.515625 47.003906 59.171875 42.894531 59.171875 37.375 C 59.171875 32.121094 60.574219 28.101562 63.40625 25.3125 C 65.496094 23.242188 68.003906 22.222656 70.894531 22.222656 C 74.417969 22.222656 77.222656 23.632812 79.308594 26.421875 C 81.398438 29.210938 82.441406 32.992188 82.441406 37.703125 Z M 73.851562 37.792969 C 73.851562 32.332031 72.863281 29.601562 70.925781 29.601562 C 69.941406 29.601562 69.164062 30.324219 68.597656 31.761719 C 68.03125 33.082031 67.734375 35.0625 67.734375 37.644531 C 67.734375 40.195312 68.003906 42.175781 68.539062 43.554688 C 69.078125 44.964844 69.820312 45.65625 70.777344 45.65625 C 71.761719 45.65625 72.507812 44.964844 73.042969 43.585938 C 73.582031 42.175781 73.851562 40.253906 73.851562 37.792969 Z M 54.964844 52.617188 L 46.910156 52.617188 L 46.910156 29.8125 L 42.464844 29.8125 L 42.464844 22.609375 L 59.589844 22.609375 L 59.589844 29.8125 L 54.964844 29.8125 Z M 136.886719 52.617188 L 128.832031 52.617188 L 128.832031 29.8125 L 124.386719 29.8125 L 124.386719 22.609375 L 141.511719 22.609375 L 141.511719 29.8125 L 136.886719 29.8125 Z M 151.027344 52.617188 L 142.972656 52.617188 L 142.972656 22.609375 L 151.027344 22.609375 Z M 160.78125 52.617188 L 152.726562 52.617188 L 152.726562 22.609375 L 160.542969 22.609375 C 164.421875 22.609375 167.316406 23.421875 169.195312 25.011719 C 171.402344 26.902344 172.507812 29.511719 172.507812 32.84375 C 172.507812 36.472656 171.3125 39.203125 168.957031 40.972656 C 167.347656 42.175781 165.019531 42.773438 162.007812 42.773438 L 160.753906 42.773438 Z M 160.78125 36.472656 L 161.140625 36.503906 C 162.125 36.503906 162.902344 36.203125 163.46875 35.601562 C 164.035156 35.003906 164.332031 34.164062 164.332031 33.113281 C 164.332031 32.0625 164.035156 31.222656 163.496094 30.59375 C 162.929688 29.933594 162.214844 29.601562 161.320312 29.601562 L 160.753906 29.601562 Z M 173.492188 51.65625 L 173.492188 42.234375 C 175.101562 44.453125 176.863281 45.566406 178.742188 45.566406 C 179.457031 45.566406 180.027344 45.382812 180.472656 45.023438 C 180.921875 44.664062 181.128906 44.214844 181.128906 43.644531 C 181.128906 42.863281 180.652344 42.085938 179.667969 41.335938 L 178.324219 40.3125 C 177.429688 39.652344 176.652344 39.023438 176.027344 38.363281 C 175.402344 37.734375 174.894531 37.042969 174.476562 36.382812 C 174.089844 35.691406 173.789062 35.003906 173.609375 34.28125 C 173.433594 33.5625 173.34375 32.78125 173.34375 32.003906 C 173.34375 30.621094 173.671875 29.183594 174.328125 27.683594 C 174.65625 26.992188 175.042969 26.332031 175.460938 25.761719 C 175.878906 25.191406 176.386719 24.679688 176.953125 24.230469 C 178.503906 22.972656 180.382812 22.3125 182.5625 22.3125 C 184.53125 22.3125 186.5 22.820312 188.46875 23.839844 L 188.46875 33.023438 C 187.8125 31.972656 187.035156 31.164062 186.171875 30.5625 C 185.304688 29.960938 184.46875 29.664062 183.636719 29.664062 C 183.007812 29.664062 182.472656 29.84375 182.082031 30.203125 C 181.667969 30.53125 181.457031 30.953125 181.457031 31.433594 C 181.457031 32.210938 182.023438 32.992188 183.128906 33.773438 L 184.441406 34.703125 C 186.171875 35.902344 187.425781 37.164062 188.167969 38.421875 C 188.945312 39.683594 189.304688 41.183594 189.304688 42.894531 C 189.304688 45.804688 188.378906 48.207031 186.558594 50.066406 C 184.738281 51.957031 182.410156 52.886719 179.609375 52.886719 C 177.757812 52.914062 175.699219 52.496094 173.492188 51.65625 Z M 190.765625 52.617188 L 190.765625 22.609375 L 205.742188 22.609375 L 205.742188 29.8125 L 198.820312 29.8125 L 198.820312 34.042969 L 205.027344 34.042969 L 205.027344 41.242188 L 198.820312 41.242188 L 198.820312 45.414062 L 205.742188 45.414062 L 205.742188 52.617188 Z M 219.523438 52.617188 L 211.46875 52.617188 L 211.46875 29.8125 L 207.023438 29.8125 L 207.023438 22.609375 L 224.148438 22.609375 L 224.148438 29.8125 L 219.523438 29.8125 Z M 91.539062 52.617188 L 83.484375 52.617188 L 83.484375 22.609375 L 91.300781 22.609375 C 95.179688 22.609375 98.074219 23.421875 99.953125 25.011719 C 102.160156 26.902344 103.265625 29.511719 103.265625 32.84375 C 103.265625 36.472656 102.070312 39.203125 99.714844 40.972656 C 98.105469 42.175781 95.777344 42.773438 92.765625 42.773438 L 91.511719 42.773438 L 91.511719 52.617188 Z M 91.539062 36.472656 L 91.898438 36.503906 C 92.882812 36.503906 93.660156 36.203125 94.226562 35.601562 C 94.792969 35.003906 95.089844 34.164062 95.089844 33.113281 C 95.089844 32.0625 94.792969 31.222656 94.253906 30.59375 C 93.6875 29.933594 92.972656 29.601562 92.078125 29.601562 L 91.511719 29.601562 Z M 112.273438 52.617188 L 104.21875 52.617188 L 104.21875 22.609375 L 112.035156 22.609375 C 115.914062 22.609375 118.808594 23.421875 120.6875 25.011719 C 122.894531 26.902344 124 29.511719 124 32.84375 C 124 36.472656 122.804688 39.203125 120.449219 40.972656 C 118.835938 42.175781 116.511719 42.773438 113.496094 42.773438 L 112.273438 42.773438 Z M 112.273438 36.472656 L 112.632812 36.503906 C 113.617188 36.503906 114.394531 36.203125 114.960938 35.601562 C 115.527344 35.003906 115.824219 34.164062 115.824219 33.113281 C 115.824219 32.0625 115.527344 31.222656 114.988281 30.59375 C 114.421875 29.933594 113.707031 29.601562 112.8125 29.601562 L 112.273438 29.601562 Z M 112.273438 36.472656 " fill-opacity="1" fill-rule="nonzero"/></g><g clip-path="url(#8f77350ef5)"><path fill="#ff0101" d="M 7.300781 22.722656 L 37.113281 22.722656 L 37.113281 52.535156 L 7.300781 52.535156 Z M 7.300781 22.722656 " fill-opacity="1" fill-rule="nonzero"/></g><g clip-path="url(#478bb7437b)"><path fill="#ffffff" d="M 23.355469 45.691406 C 25.492188 45.691406 27.214844 43.96875 27.214844 41.832031 C 27.214844 39.699219 25.492188 37.976562 23.355469 37.976562 C 21.222656 37.976562 19.5 39.699219 19.5 41.832031 C 19.472656 43.996094 21.222656 45.691406 23.355469 45.691406 Z M 34.082031 39.378906 C 26.660156 56.238281 8.453125 46.304688 15.875 29.5625 C 16.140625 28.976562 16.082031 28.890625 15.4375 29.386719 C 10.148438 33.417969 7.226562 44.640625 12.488281 51.972656 L 29.816406 51.972656 C 32.296875 49.257812 34.109375 45.164062 34.375 39.46875 C 34.402344 39.085938 34.226562 39.085938 34.082031 39.378906 Z M 34.082031 39.378906 " fill-opacity="1" fill-rule="nonzero"/></g></svg>